<svg width="139" height="54" viewBox="0 0 139 54" fill="none" xmlns="http://www.w3.org/2000/svg">
<path d="M84.5319 12.3247C81.2297 14.6508 77.7885 16.6992 73.9997 17.949C74.2431 19.1641 74.4864 20.2403 74.6254 21.386C74.973 23.8163 74.7297 26.2465 74.3821 28.6767C73.6869 33.3289 71.7056 37.3908 68.9944 41.175C67.0826 43.8483 64.9275 46.3132 62.3205 48.3616C58.9489 50.9654 55.1948 52.493 50.9542 52.8749C48.2082 53.1179 45.4969 53.0485 42.8205 52.5277C38.545 51.6598 35.66 49.1254 34.2696 44.9593C33.4354 42.4943 33.3659 39.9252 33.6787 37.3908C34.2696 32.3915 36.1814 27.8782 38.9969 23.7121C39.1012 23.5385 39.2055 23.3997 39.3098 23.2261C39.3098 23.1913 39.3445 23.1913 39.3445 23.0872C39.1012 22.9483 38.8231 22.8095 38.5798 22.7053C35.0343 21.143 31.3151 20.4834 27.4568 20.5181C22.5557 20.5181 17.8631 21.5943 13.4487 23.7468C12.9968 23.9551 12.5797 24.1982 12.0235 24.4759C12.3711 24.6842 12.6492 24.8578 12.9273 25.0314C15.0129 26.1076 17.1332 27.1492 19.2188 28.2948C21.3739 29.4405 23.4594 30.7251 25.3712 32.2526C27.3177 33.7802 28.6038 35.7591 29.3685 38.0505C30.307 40.8973 29.7509 43.64 28.4648 46.2438C27.5958 48.0144 26.1707 49.299 24.5717 50.4099C22.3471 51.9375 19.9487 52.9096 17.2722 53.2915C14.3524 53.7081 11.5717 53.3609 8.86043 52.1805C8.2 51.9028 7.57433 51.5556 6.87914 51.3126C6.07967 51.0348 5.2802 50.7918 4.48073 50.6877C3.22939 50.5141 2.25613 51.2779 2.01281 52.5277C1.90853 53.0137 1.83901 53.4998 1.7695 53.9511C1.38714 54.09 1.2481 53.9164 1.21334 53.6387C1.17858 53.2915 1.17858 52.979 1.17858 52.6319C1.21334 49.0212 1.21334 45.4106 1.2481 41.8C1.2481 40.7584 1.31762 39.7516 1.31762 38.7101C1.31762 36.4187 2.04757 34.3357 3.15987 32.3915C3.78555 31.2805 4.55025 30.2737 5.2802 29.1975C4.58501 28.5031 3.78554 27.8088 3.09035 27.045C1.63046 25.4827 0.518151 23.7121 0.170556 21.5596C-0.628913 16.7686 1.4219 13.2274 5.48876 11.0749C6.94866 10.3111 8.54759 9.89451 10.1465 9.61677C11.7107 9.37375 13.2749 9.20016 14.8738 9.33903C16.8551 9.4779 18.6974 10.0681 20.4353 10.9708C20.8872 11.2138 21.3739 11.4915 21.8605 11.6651C23.0076 12.0817 23.9113 11.6998 24.5717 10.6583C25.0236 9.92923 25.1279 9.16544 25.1626 8.36694C25.1974 7.84617 25.1974 7.84617 25.8578 7.84617C25.8926 8.05448 25.9273 8.26278 25.9273 8.50581C25.9621 11.8734 26.0316 15.241 26.0664 18.5739C26.0664 18.7475 26.0664 18.9211 26.0664 19.06C26.0316 19.5807 26.0316 19.5807 25.3364 19.5807C25.2669 19.1641 25.1974 18.7128 25.1626 18.2962C24.9541 15.7618 23.7027 13.8523 21.5824 12.4983C20.192 11.561 18.7321 10.7625 17.0289 10.5194C15.1171 10.2417 13.1358 10.3111 11.3631 11.0749C7.78289 12.6025 6.18395 16.4214 7.22674 19.8932C7.50481 20.8305 8.0262 21.6638 8.79091 22.2887C9.31231 22.7053 9.86846 23.0872 10.3899 23.4691C10.807 23.7468 11.2241 23.9898 11.6064 24.2329C20.7829 19.546 30.0985 18.6433 39.7616 22.74C40.3873 22.0109 41.013 21.2819 41.6734 20.5181C43.759 18.1573 46.0183 16.0048 48.6601 14.2342C51.7884 12.1512 55.1948 10.8319 58.9836 10.5541C60.9997 10.4153 63.0157 10.3458 65.0318 10.7277C68.4382 11.3874 71.1842 13.0191 72.9917 16.0742C73.2003 16.4214 73.3393 16.7686 73.5131 17.1158C73.7564 17.6365 73.8607 17.706 74.4168 17.4977C75.8072 16.9075 77.2671 16.352 78.588 15.6229C83.1415 13.158 87.2083 10.0334 90.58 6.07558C92.0052 4.40913 93.187 2.60382 93.9517 0.555481C94.0212 0.381893 94.1255 0.208305 94.195 0C94.4383 0.0347176 94.6816 0.0694362 94.9597 0.104154C94.9597 0.243024 94.9597 0.347177 94.9249 0.45133C94.195 3.02043 93.4303 5.55481 92.7003 8.12391C92.6308 8.40166 92.5266 8.71411 92.457 8.99185C92.3528 9.61677 92.5961 10.0334 93.2217 10.1723C93.6389 10.2764 94.0907 10.3458 94.5426 10.3806C95.933 10.45 97.3234 10.45 98.7137 10.5194C98.9571 10.5194 99.2004 10.5541 99.548 10.5889C99.4437 10.936 99.3742 11.2138 99.2699 11.561C96.802 11.5262 94.334 11.4568 91.8314 11.4221C91.7271 11.7345 91.588 12.047 91.5185 12.3595C89.2592 19.789 86.9998 27.2186 84.7057 34.6481C83.5238 38.5018 82.342 42.3554 81.1949 46.2091C80.9864 46.9035 80.8126 47.5978 80.7431 48.3269C80.465 50.3405 82.0987 50.9654 83.4543 50.6877C84.08 50.5488 84.6709 50.1669 85.1923 49.785C86.0613 49.0907 86.7565 48.2227 87.3126 47.2159C88.4597 45.1676 89.572 43.0845 90.7886 41.0362C92.7351 37.8074 95.4811 35.4466 99.1309 34.2315C99.8956 33.9885 100.591 33.6413 101.216 33.0859C103.059 31.4888 105.318 30.6556 107.647 30.1001C109.489 29.6488 111.366 29.5447 113.278 29.4405C115.294 29.3016 117.345 29.2322 119.291 28.6073C120.647 28.156 121.933 27.6005 123.011 26.6284C123.602 26.1076 123.914 25.448 123.88 24.6495C123.845 22.9483 123.845 21.2472 123.81 19.5807C123.671 15.8659 120.612 12.0123 116.233 11.561C113.695 11.2832 111.297 11.5957 108.968 12.6025C107.404 13.2621 106.048 14.1995 105.075 15.6229C104.762 16.0742 104.519 16.595 104.345 17.1158C103.858 18.5739 104.484 19.9626 105.874 20.5528C107.091 21.0736 108.342 21.2124 109.559 20.5528C109.941 20.3445 110.393 20.0668 110.775 20.4834C111.192 20.9347 110.88 21.386 110.671 21.8026C109.733 23.6427 107.299 24.9272 105.179 24.7189C101.842 24.4412 100.417 21.8026 100.765 18.9558C101.182 15.7618 103.163 13.7134 105.909 12.3595C108.134 11.2485 110.567 10.7625 113.069 10.5889C116.615 10.3806 120.056 10.7277 123.358 12.1512C125.409 13.0538 127.182 14.2689 128.607 16.0048C128.955 16.4214 129.233 16.8727 129.476 17.3241C130.832 19.8585 131.179 22.5664 131.005 25.3786C130.971 25.7604 130.936 26.1423 130.936 26.5242C130.936 33.3983 130.936 40.3071 130.936 47.1812C130.936 47.6672 130.971 48.188 131.075 48.6741C131.492 50.653 134.029 51.7986 135.698 50.2711C136.984 49.1254 137.644 47.6672 137.992 46.0355C138.027 45.8619 138.027 45.6883 138.061 45.5495C138.131 45.237 138.34 45.1676 138.618 45.2023C138.896 45.237 139 45.4106 139 45.6536C139 48.3963 137.992 51.9375 134.377 53.222C132.813 53.7775 131.214 53.9511 129.545 53.6734C127.495 53.3262 126 52.1805 124.992 50.3752C124.227 48.9865 123.741 47.4936 123.775 45.6536C123.602 45.9314 123.532 46.0355 123.463 46.1744C122.037 49.0907 119.917 51.2779 116.928 52.5277C115.537 53.1179 114.077 53.4304 112.548 53.4998C109.941 53.6039 107.369 53.3262 104.936 52.3888C102.468 51.4515 100.313 50.0975 98.8875 47.7714C97.5667 45.6189 97.1843 43.2928 97.3581 40.8279C97.4972 38.6059 98.2271 36.627 99.4784 34.787C99.5132 34.7176 99.548 34.6481 99.6175 34.4746C98.7833 34.6481 98.0186 34.9259 97.3234 35.3078C94.6816 36.7312 92.4918 38.6407 91.0667 41.3486C89.8848 43.5706 88.7725 45.7925 87.5559 47.9797C86.6522 49.6114 85.7485 51.2431 84.2538 52.4235C83.2458 53.222 82.0987 53.7428 80.8126 53.7428C79.6655 53.7428 78.5532 53.6387 77.4409 53.4304C74.5211 52.9096 73.4436 50.0628 73.8607 47.9103C74.104 46.6951 74.4864 45.48 74.834 44.2996C78.0318 34.0232 81.195 23.7468 84.3928 13.4704C84.4971 13.158 84.5319 12.8455 84.6014 12.533C84.6361 12.3942 84.5666 12.3595 84.5319 12.3247ZM42.9247 47.4589C43.8285 49.2295 45.0798 50.5835 46.8178 51.5209C47.1306 51.6945 47.4782 51.7639 47.8606 51.8333C49.1467 52.0764 50.398 52.0416 51.6841 51.8333C55.9596 51.1043 59.3312 49.0212 61.6949 45.3412C63.5371 42.4249 64.997 39.3003 66.0398 36.0021C67.5345 31.1764 68.2297 26.2465 67.1174 21.2472C67.0131 20.6917 66.8393 20.1362 66.7002 19.5807C66.4569 19.5807 66.2831 19.546 66.1093 19.546C64.2323 19.7196 62.3901 19.6849 60.5478 19.5113C59.1922 19.4071 57.8366 19.303 56.5505 18.7822C54.3954 17.949 53.2831 15.9354 53.7002 13.644C53.735 13.5051 53.7349 13.3316 53.7697 13.158C49.8071 13.8523 44.0718 19.8932 42.8552 24.58C43.6199 25.3091 44.4542 26.0035 45.1494 26.7673C48.1039 30.0307 49.251 33.8149 48.4515 38.1546C47.8954 41.0709 46.4702 43.5358 44.5237 45.7578C44.0023 46.348 43.4809 46.8687 42.9247 47.4589ZM5.76684 29.4405C4.3417 31.0375 3.29891 32.7734 2.5342 34.6481C1.63046 36.8701 1.5957 39.1267 1.90853 41.4528C2.46468 45.48 4.27218 48.7088 7.92193 50.6877C8.5476 51.0348 9.20803 51.382 9.86846 51.625C11.7107 52.3541 13.5877 52.7013 15.569 52.2847C18.3498 51.6945 20.4701 50.1669 22.2081 47.9797C23.0423 46.9382 23.3899 45.7231 23.4247 44.4385C23.5289 41.3486 22.1386 38.8837 19.9487 36.9048C18.315 35.4466 16.438 34.301 14.422 33.3983C11.815 32.2179 9.24279 31.0028 6.63582 29.8224C6.39251 29.6835 6.11443 29.5794 5.76684 29.4405ZM107.751 33.6066C109.767 34.0927 111.47 34.8912 113.035 35.9674C114.807 37.2172 116.163 38.8143 116.928 40.8279C117.797 43.0151 117.762 45.1676 116.476 47.2159C115.537 48.7088 114.251 49.8197 112.618 50.5488C112.27 50.6877 111.957 50.8613 111.47 51.1043C114.286 51.7639 116.858 51.5209 119.048 49.9239C122.037 47.7367 123.81 44.7162 123.845 40.932C123.914 36.6965 123.845 32.4262 123.81 28.1907C123.81 27.9824 123.775 27.7741 123.741 27.5658C123.636 27.5658 123.567 27.5658 123.532 27.6005C121.203 29.1975 118.596 29.9613 115.85 30.4126C113.973 30.7251 112.096 31.1417 110.358 31.9749C109.454 32.3568 108.585 32.8428 107.751 33.6066ZM104.171 41.6958C104.101 43.0498 104.553 44.6468 105.214 46.1744C106.118 48.2922 107.786 49.6114 109.837 50.5141C110.08 50.6182 110.428 50.6182 110.741 50.5835C113.208 50.2711 115.016 48.9518 116.267 46.8687C116.928 45.7578 117.241 44.5774 117.171 43.2928C117.032 41.7305 116.511 40.3071 115.607 39.0573C113.834 36.5229 111.366 35.0648 108.446 34.1968C107.23 33.8496 107.195 33.8496 106.43 34.8565C104.936 36.7659 104.171 38.9184 104.171 41.6958ZM42.2296 45.9661C42.7509 45.8272 43.1681 45.7925 43.4809 45.5495C44.0718 45.1329 44.6627 44.7162 45.1146 44.1608C46.9568 42.0083 47.9996 39.4739 48.2082 36.6618C48.5558 31.9055 46.5397 28.2254 42.9595 25.3091C42.89 25.2397 42.7857 25.205 42.5771 25.1008C39.8659 32.0096 40.0049 38.8837 42.2296 45.9661ZM66.5264 19.1641C65.4837 16.1437 63.6762 14.0953 60.8606 13.0538C59.366 12.4983 57.8018 12.29 56.2029 12.7066C55.1948 12.9844 54.5344 13.7134 54.4301 14.7897C54.2911 16.0395 54.743 17.1158 55.751 17.8448C56.3072 18.2267 56.9676 18.5045 57.628 18.7128C59.6788 19.3724 61.7992 19.3724 63.8847 19.3724C64.7189 19.303 65.5532 19.1988 66.5264 19.1641Z" fill="#303030"/>
</svg>
