<svg width="187" height="73" viewBox="0 0 187 73" fill="none" xmlns="http://www.w3.org/2000/svg">
<path d="M113.244 16.5355C108.821 19.6563 104.21 22.4045 99.1348 24.0813C99.4608 25.7116 99.7867 27.1555 99.973 28.6927C100.439 31.9532 100.113 35.2137 99.647 38.4742C98.7157 44.7158 96.0614 50.1656 92.4293 55.2427C89.8681 58.8293 86.981 62.1364 83.4886 64.8845C78.9717 68.3779 73.9426 70.4274 68.2615 70.9398C64.5828 71.2658 60.9506 71.1727 57.365 70.474C51.6374 69.3095 47.7724 65.9093 45.9098 60.3198C44.7922 57.0127 44.6991 53.5658 45.1182 50.1656C45.9098 43.4582 48.4709 37.4029 52.2428 31.8134C52.3825 31.5805 52.5222 31.3942 52.6619 31.1613C52.6619 31.1148 52.7084 31.1148 52.7084 30.975C52.3825 30.7887 52.0099 30.6024 51.684 30.4627C46.9342 28.3666 41.9517 27.4816 36.7828 27.5282C30.217 27.5282 23.9306 28.9721 18.0167 31.86C17.4114 32.1395 16.8526 32.4656 16.1075 32.8382C16.5732 33.1177 16.9457 33.3506 17.3182 33.5834C20.1122 35.0274 22.9527 36.4248 25.7467 37.9619C28.6338 39.499 31.4277 41.2224 33.9889 43.2719C36.5966 45.3214 38.3195 47.9764 39.344 51.0506C40.6013 54.87 39.8562 58.5498 38.1333 62.0432C36.9691 64.4187 35.0599 66.1422 32.9179 67.6327C29.9376 69.6822 26.7246 70.9864 23.139 71.4987C19.2274 72.0577 15.5022 71.5919 11.87 70.0082C10.9852 69.6356 10.1471 69.1698 9.21574 68.8437C8.14472 68.4711 7.0737 68.1451 6.00268 68.0053C4.3263 67.7724 3.02245 68.7971 2.69649 70.474C2.55679 71.1261 2.46366 71.7782 2.37053 72.3837C1.8583 72.5701 1.67204 72.3372 1.62547 71.9645C1.5789 71.4987 1.5789 71.0795 1.5789 70.6137C1.62547 65.7695 1.62547 60.9253 1.67204 56.0811C1.67204 54.6837 1.76517 53.3329 1.76517 51.9356C1.76517 48.8614 2.74306 46.0666 4.23317 43.4582C5.07136 41.9677 6.09581 40.6169 7.0737 39.1729C6.14237 38.2413 5.07136 37.3098 4.14004 36.285C2.18426 34.189 0.694148 31.8134 0.228487 28.9255C-0.842532 22.4976 1.90487 17.7466 7.3531 14.8587C9.30887 13.834 11.4509 13.275 13.5929 12.9024C15.6884 12.5763 17.7839 12.3434 19.9259 12.5297C22.5802 12.7161 25.0482 13.5079 27.3765 14.719C27.9819 15.045 28.6338 15.4176 29.2857 15.6505C30.8224 16.2095 32.0331 15.6971 32.9179 14.2997C33.5232 13.3216 33.6629 12.2969 33.7095 11.2255C33.7561 10.5268 33.7561 10.5268 34.6408 10.5268C34.6874 10.8063 34.7339 11.0858 34.7339 11.4119C34.7805 15.93 34.8736 20.4482 34.9202 24.9198C34.9202 25.1527 34.9202 25.3855 34.9202 25.5719C34.8736 26.2705 34.8736 26.2705 33.9423 26.2705C33.8492 25.7116 33.7561 25.1061 33.7095 24.5471C33.4301 21.1469 31.7537 18.585 28.9132 16.7684C27.0505 15.5108 25.0948 14.4395 22.813 14.1134C20.2519 13.7408 17.5976 13.834 15.2228 14.8587C10.4265 16.9082 8.28442 22.0319 9.6814 26.6898C10.0539 27.9474 10.7524 29.0653 11.7769 29.9037C12.4754 30.4627 13.2204 30.975 13.9189 31.4874C14.4777 31.86 15.0365 32.1861 15.5487 32.5121C27.8422 26.224 40.3219 25.0129 53.2672 30.5092C54.1054 29.5311 54.9436 28.5529 55.8284 27.5282C58.6223 24.3608 61.6491 21.4729 65.1881 19.0974C69.3791 16.3026 73.9426 14.5326 79.0182 14.16C81.7191 13.9737 84.4199 13.8805 87.1207 14.3929C91.6842 15.2779 95.3629 17.4671 97.7844 21.5661C98.0638 22.0319 98.25 22.4976 98.4829 22.9634C98.8088 23.6621 98.9485 23.7553 99.6936 23.4758C101.556 22.684 103.512 21.9387 105.282 20.9605C111.382 17.6534 116.83 13.4613 121.347 8.15132C123.256 5.91553 124.839 3.49342 125.864 0.745263C125.957 0.512368 126.097 0.279474 126.19 0C126.516 0.046579 126.842 0.0931594 127.214 0.139738C127.214 0.326054 127.214 0.465791 127.168 0.605528C126.19 4.05237 125.165 7.45264 124.187 10.8995C124.094 11.2721 123.954 11.6913 123.861 12.064C123.722 12.9024 124.048 13.4613 124.886 13.6476C125.445 13.7874 126.05 13.8805 126.655 13.9271C128.518 14.0203 130.381 14.0203 132.243 14.1134C132.569 14.1134 132.895 14.16 133.361 14.2066C133.221 14.6724 133.128 15.045 132.988 15.5108C129.682 15.4642 126.376 15.3711 123.023 15.3245C122.883 15.7437 122.697 16.1629 122.604 16.5821C119.577 26.55 116.55 36.5179 113.477 46.4858C111.894 51.6561 110.311 56.8264 108.774 61.9966C108.495 62.9282 108.262 63.8598 108.169 64.838C107.796 67.5395 109.985 68.3779 111.801 68.0053C112.639 67.819 113.431 67.3066 114.129 66.7943C115.293 65.8627 116.225 64.6982 116.97 63.3474C118.506 60.5993 119.996 57.8045 121.626 55.0564C124.234 50.7245 127.913 47.5571 132.802 45.9269C133.826 45.6008 134.758 45.135 135.596 44.3898C138.064 42.2471 141.091 41.1292 144.211 40.384C146.679 39.7785 149.193 39.6387 151.754 39.499C154.455 39.3127 157.203 39.2195 159.81 38.3811C161.626 37.7756 163.349 37.0303 164.793 35.7261C165.585 35.0274 166.004 34.1424 165.957 33.0711C165.911 30.7887 165.911 28.5063 165.864 26.2705C165.678 21.2866 161.58 16.1163 155.713 15.5108C152.313 15.1382 149.1 15.5574 145.98 16.9082C143.885 17.7932 142.069 19.0508 140.765 20.9605C140.346 21.5661 140.02 22.2648 139.787 22.9634C139.135 24.9198 139.973 26.7829 141.836 27.5748C143.466 28.2734 145.142 28.4598 146.772 27.5748C147.284 27.2953 147.889 26.9227 148.402 27.4816C148.96 28.0871 148.541 28.6927 148.262 29.2516C147.005 31.7203 143.745 33.4437 140.905 33.1642C136.434 32.7916 134.525 29.2516 134.991 25.4321C135.549 21.1469 138.204 18.3987 141.882 16.5821C144.863 15.0916 148.122 14.4395 151.475 14.2066C156.225 13.9271 160.835 14.3929 165.259 16.3026C168.006 17.5137 170.381 19.144 172.29 21.4729C172.756 22.0319 173.128 22.6374 173.454 23.2429C175.27 26.6432 175.736 30.2763 175.503 34.0492C175.457 34.5616 175.41 35.074 175.41 35.5863C175.41 44.809 175.41 54.0782 175.41 63.3008C175.41 63.9529 175.457 64.6516 175.596 65.3037C176.155 67.9587 179.554 69.4958 181.79 67.4464C183.512 65.9093 184.397 63.9529 184.863 61.7637C184.909 61.5308 184.909 61.2979 184.956 61.1116C185.049 60.6924 185.329 60.5993 185.701 60.6458C186.074 60.6924 186.213 60.9253 186.213 61.2514C186.213 64.9311 184.863 69.6822 180.02 71.4056C177.925 72.1508 175.783 72.3837 173.547 72.0111C170.8 71.5453 168.798 70.0082 167.447 67.5861C166.423 65.7229 165.771 63.72 165.817 61.2514C165.585 61.624 165.491 61.7637 165.398 61.95C163.489 65.8627 160.649 68.7971 156.644 70.474C154.781 71.2658 152.825 71.6851 150.777 71.7782C147.284 71.918 143.838 71.5453 140.579 70.2877C137.272 69.0301 134.385 67.2135 132.476 64.0927C130.707 61.2048 130.194 58.084 130.427 54.7769C130.613 51.7958 131.591 49.1408 133.268 46.6721C133.314 46.579 133.361 46.4858 133.454 46.2529C132.336 46.4858 131.312 46.8585 130.381 47.3708C126.842 49.2806 123.908 51.8424 121.999 55.4756C120.415 58.4566 118.925 61.4377 117.296 64.3722C116.085 66.5614 114.874 68.7506 112.872 70.3343C111.521 71.4056 109.985 72.1043 108.262 72.1043C106.725 72.1043 105.235 71.9645 103.745 71.6851C99.8333 70.9864 98.3897 67.1669 98.9485 64.279C99.2745 62.6487 99.7867 61.0185 100.252 59.4348C104.536 45.6474 108.774 31.86 113.058 18.0726C113.198 17.6534 113.244 17.2342 113.337 16.815C113.384 16.6287 113.291 16.5821 113.244 16.5355ZM57.5047 63.6735C58.7155 66.049 60.3918 67.8656 62.7201 69.1232C63.1392 69.3561 63.6049 69.4493 64.1171 69.5424C65.8401 69.8685 67.5164 69.8219 69.2394 69.5424C74.967 68.5643 79.4839 65.7695 82.6504 60.8322C85.1184 56.9195 87.0742 52.7274 88.4712 48.3024C90.4735 41.8279 91.4048 35.2137 89.9147 28.5063C89.775 27.7611 89.5422 27.0158 89.3559 26.2705C89.03 26.2705 88.7971 26.224 88.5643 26.224C86.0497 26.4569 83.5817 26.4103 81.1137 26.1774C79.2976 26.0377 77.4816 25.8979 75.7586 25.1992C72.8715 24.0813 71.3814 21.3798 71.9402 18.3055C71.9868 18.1192 71.9868 17.8863 72.0333 17.6534C66.7248 18.585 59.0414 26.6898 57.4116 32.9779C58.4361 33.9561 59.5536 34.8877 60.485 35.9124C64.4431 40.2908 65.9798 45.3679 64.9087 51.1903C64.1637 55.1029 62.2545 58.41 59.6468 61.3911C58.9483 62.1829 58.2498 62.8816 57.5047 63.6735ZM7.72562 39.499C5.81642 41.6416 4.41943 43.9706 3.39498 46.4858C2.18426 49.4669 2.1377 52.4945 2.55679 55.6153C3.30185 61.0185 5.72328 65.3503 10.6127 68.0053C11.4509 68.4711 12.3357 68.9369 13.2204 69.263C15.6884 70.2411 18.203 70.7069 20.8573 70.1479C24.5825 69.3561 27.4231 67.3066 29.7514 64.3722C30.869 62.9748 31.3346 61.3445 31.3812 59.6211C31.5209 55.4756 29.6582 52.1685 26.7246 49.5135C24.536 47.5571 22.0214 46.02 19.3206 44.809C15.8281 43.2253 12.3822 41.595 8.88978 40.0113C8.56381 39.825 8.19129 39.6853 7.72562 39.499ZM144.35 45.0885C147.051 45.7406 149.333 46.8119 151.428 48.2558C153.803 49.9327 155.619 52.0753 156.644 54.7769C157.808 57.7114 157.761 60.5993 156.038 63.3474C154.781 65.3503 153.058 66.8408 150.87 67.819C150.404 68.0053 149.985 68.2382 149.333 68.5643C153.105 69.4493 156.551 69.1232 159.484 66.9806C163.489 64.0461 165.864 59.9937 165.911 54.9166C166.004 49.234 165.911 43.5048 165.864 37.8221C165.864 37.5427 165.817 37.2632 165.771 36.9837C165.631 36.9837 165.538 36.9837 165.491 37.0303C162.371 39.1729 158.879 40.1977 155.2 40.8032C152.686 41.2224 150.171 41.7813 147.843 42.8992C146.632 43.4116 145.468 44.0637 144.35 45.0885ZM139.554 55.9414C139.461 57.7579 140.066 59.9006 140.951 61.95C142.162 64.7914 144.397 66.5614 147.144 67.7724C147.47 67.9122 147.936 67.9122 148.355 67.8656C151.661 67.4464 154.083 65.6764 155.759 62.8816C156.644 61.3911 157.063 59.8074 156.97 58.084C156.784 55.9879 156.085 54.0782 154.874 52.4014C152.499 49.0011 149.193 47.0448 145.282 45.8803C143.652 45.4145 143.605 45.4145 142.581 46.7653C140.579 49.3271 139.554 52.215 139.554 55.9414ZM56.5734 61.6706C57.2719 61.4843 57.8307 61.4377 58.2498 61.1116C59.0414 60.5527 59.833 59.9937 60.4384 59.2485C62.9064 56.3606 64.3034 52.9603 64.5828 49.1874C65.0484 42.8061 62.3476 37.8687 57.5513 33.9561C57.4582 33.8629 57.3185 33.8163 57.0391 33.6766C53.4069 42.9458 53.5932 52.1685 56.5734 61.6706ZM89.1231 25.7116C87.7261 21.6592 85.3047 18.9111 81.5328 17.5137C79.5305 16.7684 77.435 16.489 75.293 17.0479C73.9426 17.4205 73.0578 18.3987 72.9181 19.8426C72.7318 21.5195 73.3372 22.9634 74.6876 23.9416C75.4327 24.454 76.3174 24.8266 77.2022 25.1061C79.9496 25.9911 82.7901 25.9911 85.5841 25.9911C86.7017 25.8979 87.8192 25.7582 89.1231 25.7116Z" fill="white"/>
</svg>
