<svg width="28" height="28" viewBox="0 0 28 28" fill="none" xmlns="http://www.w3.org/2000/svg">
<path fill-rule="evenodd" clip-rule="evenodd" d="M26 14C26 20.6274 20.6274 26 14 26C7.37258 26 2 20.6274 2 14C2 7.37258 7.37258 2 14 2C20.6274 2 26 7.37258 26 14ZM28 14C28 21.732 21.732 28 14 28C6.26801 28 0 21.732 0 14C0 6.26801 6.26801 0 14 0C21.732 0 28 6.26801 28 14ZM14.0667 7.46667C14.0667 6.91438 13.619 6.46667 13.0667 6.46667C12.5144 6.46667 12.0667 6.91438 12.0667 7.46667V14.6944C12.0667 15.2094 12.3495 15.6829 12.8029 15.9271L18.6592 19.0805C19.1455 19.3423 19.752 19.1604 20.0138 18.6741C20.2756 18.1878 20.0937 17.5814 19.6074 17.3195L14.0667 14.336V7.46667Z" fill="#454545"/>
</svg>
