<svg width="20" height="21" viewBox="0 0 20 21" fill="none" xmlns="http://www.w3.org/2000/svg">
<path d="M9.13718 17.1648L9.13647 17.1641C6.98119 15.112 5.23128 13.4427 4.01436 11.8794C2.80357 10.324 2.16669 8.9303 2.16669 7.4375C2.16669 4.98723 3.98162 3.125 6.25002 3.125C7.53957 3.125 8.79274 3.75807 9.61289 4.76144L10 5.23505L10.3871 4.76144C11.2073 3.75807 12.4605 3.125 13.75 3.125C16.0184 3.125 17.8334 4.98723 17.8334 7.4375C17.8334 8.9303 17.1965 10.324 15.9857 11.8794C14.7688 13.4427 13.0188 15.112 10.8636 17.1641L10.8629 17.1648L10 17.9896L9.13718 17.1648Z" stroke="#FFC31D"/>
</svg>
