<svg width="21" height="22" viewBox="0 0 21 22" fill="none" xmlns="http://www.w3.org/2000/svg">
<path fill-rule="evenodd" clip-rule="evenodd" d="M9.40677 12.111V21H10.4068V12.111H20V11.111H10.4068L10.4068 1H9.40677L9.40677 11.111H0.93219V12.111H9.40677Z" fill="#454545"/>
<path d="M9.40677 21H8.90677V21.5H9.40677V21ZM9.40677 12.111H9.90677V11.611H9.40677V12.111ZM10.4068 21V21.5H10.9068V21H10.4068ZM10.4068 12.111V11.611H9.90677V12.111H10.4068ZM20 12.111V12.611H20.5V12.111H20ZM20 11.111H20.5V10.611H20V11.111ZM10.4068 11.111H9.90677V11.611H10.4068V11.111ZM10.4068 1L10.9068 1V0.5H10.4068V1ZM9.40677 1V0.5H8.90677V1L9.40677 1ZM9.40677 11.111V11.611H9.90677V11.111H9.40677ZM0.93219 11.111V10.611H0.43219V11.111H0.93219ZM0.93219 12.111H0.43219V12.611H0.93219V12.111ZM9.90677 21V12.111H8.90677V21H9.90677ZM10.4068 20.5H9.40677V21.5H10.4068V20.5ZM9.90677 12.111V21H10.9068V12.111H9.90677ZM20 11.611H10.4068V12.611H20V11.611ZM19.5 11.111V12.111H20.5V11.111H19.5ZM10.4068 11.611H20V10.611H10.4068V11.611ZM9.90677 1L9.90677 11.111H10.9068L10.9068 1L9.90677 1ZM9.40677 1.5H10.4068V0.5H9.40677V1.5ZM9.90677 11.111L9.90677 1L8.90677 1L8.90677 11.111H9.90677ZM0.93219 11.611H9.40677V10.611H0.93219V11.611ZM1.43219 12.111V11.111H0.43219V12.111H1.43219ZM9.40677 11.611H0.93219V12.611H9.40677V11.611Z" fill="#454545"/>
</svg>
