<svg width="42" height="42" viewBox="0 0 42 42" fill="none" xmlns="http://www.w3.org/2000/svg">
<g clip-path="url(#clip0_631_277)">
<path d="M36.8117 33.6476V33.7145H36.8741C36.8859 33.7147 36.8974 33.7117 36.9076 33.7059C36.9117 33.7031 36.915 33.6992 36.9172 33.6948C36.9194 33.6903 36.9204 33.6854 36.9202 33.6804C36.9204 33.6755 36.9193 33.6707 36.9171 33.6663C36.9149 33.6619 36.9117 33.6582 36.9076 33.6555C36.8975 33.6494 36.8859 33.6465 36.8741 33.647H36.8117V33.6476ZM36.8748 33.6003C36.9016 33.5987 36.9281 33.6064 36.9498 33.6221C36.9585 33.6292 36.9654 33.6382 36.97 33.6485C36.9745 33.6588 36.9766 33.67 36.9761 33.6812C36.9765 33.6909 36.9748 33.7005 36.9712 33.7095C36.9675 33.7184 36.962 33.7265 36.955 33.7332C36.9382 33.7477 36.9172 33.7565 36.8951 33.7581L36.9787 33.8533H36.9143L36.8373 33.7588H36.8124V33.8533H36.7585V33.6005H36.8757L36.8748 33.6003ZM36.8581 33.9406C36.8863 33.9408 36.9143 33.9351 36.9403 33.9238C36.9652 33.9131 36.9879 33.8977 37.0072 33.8786C37.0265 33.8594 37.0419 33.8367 37.0525 33.8117C37.0745 33.7588 37.0745 33.6993 37.0525 33.6463C37.0417 33.6214 37.0263 33.5987 37.0072 33.5795C36.9879 33.5603 36.9652 33.5449 36.9403 33.5342C36.9142 33.5235 36.8862 33.5182 36.8581 33.5185C36.8294 33.5182 36.801 33.5235 36.7744 33.5342C36.7489 33.5447 36.7256 33.5601 36.706 33.5795C36.6763 33.6098 36.6563 33.6481 36.6484 33.6897C36.6404 33.7313 36.6449 33.7743 36.6613 33.8134C36.6715 33.8385 36.6867 33.8612 36.706 33.8802C36.7256 33.8996 36.7489 33.915 36.7744 33.9255C36.8008 33.9368 36.8293 33.9425 36.8581 33.9422M36.8581 33.4576C36.9316 33.4576 37.0023 33.4864 37.0547 33.5379C37.08 33.5626 37.1002 33.592 37.114 33.6246C37.1283 33.658 37.1356 33.6939 37.1356 33.7303C37.1356 33.7666 37.1283 33.8025 37.114 33.8359C37.0998 33.8683 37.0797 33.8977 37.0547 33.9227C37.0291 33.9473 36.9992 33.9671 36.9665 33.9812C36.9322 33.9957 36.8953 34.0031 36.8581 34.0029C36.8204 34.0031 36.783 33.9958 36.7483 33.9812C36.7153 33.9674 36.6851 33.9475 36.6594 33.9227C36.6344 33.8968 36.6146 33.8664 36.601 33.8331C36.5867 33.7997 36.5793 33.7638 36.5793 33.7274C36.5793 33.6911 36.5867 33.6551 36.601 33.6217C36.6148 33.5892 36.635 33.5597 36.6603 33.535C36.6856 33.5097 36.7158 33.4898 36.7491 33.4765C36.7839 33.4619 36.8212 33.4545 36.8589 33.4548M11.2325 32.4813C11.2325 31.9992 11.5488 31.6032 12.0658 31.6032C12.5598 31.6032 12.8932 31.9822 12.8932 32.4813C12.8932 32.9804 12.5598 33.3594 12.0658 33.3594C11.5488 33.3594 11.2325 32.9634 11.2325 32.4813ZM13.4563 32.4813V31.1095H12.859V31.4436C12.6696 31.1967 12.3822 31.0418 11.9914 31.0418C11.2216 31.0418 10.6174 31.6447 10.6174 32.482C10.6174 33.3193 11.2213 33.9222 11.9914 33.9222C12.3821 33.9222 12.6696 33.7671 12.859 33.5203V33.8533H13.4556V32.4813H13.4563ZM33.6381 32.4813C33.6381 31.9992 33.9545 31.6032 34.4716 31.6032C34.9661 31.6032 35.299 31.9822 35.299 32.4813C35.299 32.9804 34.9661 33.3594 34.4716 33.3594C33.9546 33.3594 33.6381 32.9634 33.6381 32.4813ZM35.8626 32.4813V30.0083H35.2649V31.4436C35.0754 31.1967 34.7881 31.0418 34.3973 31.0418C33.6274 31.0418 33.0233 31.6447 33.0233 32.482C33.0233 33.3193 33.6271 33.9222 34.3973 33.9222C34.7881 33.9222 35.0754 33.7671 35.2649 33.5203V33.8533H35.8626V32.4813ZM20.8695 31.575C21.2544 31.575 21.5016 31.8159 21.5647 32.2402H20.1395C20.2033 31.8442 20.4441 31.575 20.8697 31.575M20.8816 31.0403C20.0766 31.0403 19.5134 31.6251 19.5134 32.4805C19.5134 33.3525 20.0992 33.9207 20.9216 33.9207C21.3353 33.9207 21.7142 33.8176 22.0476 33.5363L21.7548 33.0944C21.5246 33.2782 21.2314 33.3813 20.9557 33.3813C20.5708 33.3813 20.2204 33.2033 20.1342 32.7096H22.1737C22.1796 32.6354 22.1856 32.5605 22.1856 32.4803C22.1796 31.6253 21.6501 31.0401 20.8812 31.0401M28.0926 32.4803C28.0926 31.9982 28.4089 31.6022 28.9259 31.6022C29.4199 31.6022 29.7533 31.9812 29.7533 32.4803C29.7533 32.9794 29.4199 33.3584 28.9259 33.3584C28.4089 33.3584 28.0925 32.9624 28.0925 32.4803M30.3163 32.4803V31.1095H29.7193V31.4436C29.5292 31.1967 29.2425 31.0418 28.8518 31.0418C28.0819 31.0418 27.4778 31.6447 27.4778 32.482C27.4778 33.3193 28.0816 33.9222 28.8518 33.9222C29.2425 33.9222 29.5292 33.7671 29.7193 33.5203V33.8533H30.3165V32.4813L30.3163 32.4803ZM24.7196 32.4803C24.7196 33.3123 25.2996 33.9205 26.1849 33.9205C26.5986 33.9205 26.8743 33.8286 27.1723 33.5935L26.8855 33.1114C26.6612 33.2723 26.4258 33.3584 26.1659 33.3584C25.6891 33.3525 25.3384 33.0083 25.3384 32.4803C25.3384 31.9523 25.6891 31.6082 26.1659 31.6022C26.4251 31.6022 26.6606 31.6883 26.8855 31.8492L27.1723 31.3671C26.8738 31.132 26.5981 31.0401 26.1849 31.0401C25.2996 31.0401 24.7196 31.6482 24.7196 32.4803ZM32.4196 31.0401C32.075 31.0401 31.8506 31.201 31.6955 31.442V31.1095H31.1035V33.8518H31.7015V32.3145C31.7015 31.8607 31.8968 31.6086 32.2872 31.6086C32.4151 31.6067 32.5421 31.6302 32.6608 31.6776L32.8449 31.1155C32.7127 31.0635 32.5403 31.0406 32.4193 31.0406M16.4093 31.3275C16.122 31.1384 15.726 31.0406 15.2892 31.0406C14.5933 31.0406 14.1453 31.3736 14.1453 31.9185C14.1453 32.3657 14.4789 32.6416 15.0931 32.7276L15.3752 32.7677C15.7027 32.8137 15.8574 32.8997 15.8574 33.0546C15.8574 33.2667 15.6398 33.3876 15.2313 33.3876C14.8176 33.3876 14.519 33.2556 14.3177 33.1007L14.037 33.5658C14.3646 33.8067 14.7783 33.9217 15.2263 33.9217C16.0195 33.9217 16.4793 33.5487 16.4793 33.0265C16.4793 32.5445 16.1174 32.2923 15.5197 32.2063L15.2382 32.1655C14.9796 32.1321 14.7724 32.0801 14.7724 31.8963C14.7724 31.6958 14.9677 31.5752 15.2954 31.5752C15.646 31.5752 15.9854 31.7072 16.1518 31.8103L16.4103 31.3282L16.4093 31.3275ZM24.1162 31.0411C23.7717 31.0411 23.5472 31.202 23.3928 31.443V31.1095H22.8008V33.8518H23.3981V32.3145C23.3981 31.8607 23.5934 31.6086 23.9839 31.6086C24.1117 31.6067 24.2387 31.6302 24.3574 31.6776L24.5415 31.1155C24.4093 31.0635 24.2369 31.0406 24.1159 31.0406M19.0192 31.1095H18.0425V30.2775H17.4387V31.1095H16.8816V31.6545H17.4387V32.9056C17.4387 33.5419 17.6861 33.9208 18.3927 33.9208C18.6519 33.9208 18.9505 33.8406 19.1399 33.7088L18.9674 33.1981C18.7891 33.3012 18.5938 33.3532 18.4385 33.3532C18.1399 33.3532 18.0425 33.1694 18.0425 32.8942V31.655H19.0192V31.1095ZM10.0893 33.8525V32.1314C10.0893 31.4833 9.67557 31.0471 9.00865 31.0413C8.65804 31.0354 8.29638 31.1444 8.04317 31.5292C7.85373 31.2251 7.55516 31.0413 7.13543 31.0413C6.84206 31.0413 6.55538 31.1273 6.33095 31.4485V31.1095H5.73315V33.8518H6.33564V32.3313C6.33564 31.8552 6.60006 31.6022 7.00841 31.6022C7.40504 31.6022 7.6057 31.8604 7.6057 32.3252V33.8515H8.20953V32.3309C8.20953 31.8549 8.48516 31.6019 8.88163 31.6019C9.28948 31.6019 9.48411 31.86 9.48411 32.3249V33.8512L10.0893 33.8525Z" fill="#231F20"/>
<path d="M37.1523 24.7301V24.3291H37.0477L36.9267 24.6043L36.8064 24.3291H36.7014V24.7301H36.7757V24.428L36.8889 24.6887H36.9658L37.079 24.4274V24.7301H37.1526H37.1523ZM36.4887 24.7301V24.3978H36.6226V24.3301H36.2805V24.3978H36.4144V24.7301H36.488H36.4887Z" fill="#F79410"/>
<path d="M25.2638 26.4497H16.2122V10.208H25.264L25.2638 26.4497Z" fill="#FF5F00"/>
<path d="M16.786 18.3293C16.786 15.0347 18.3311 12.0999 20.737 10.2085C18.9158 8.77474 16.6633 7.99659 14.3441 8.00001C8.63108 8.00001 4 12.6245 4 18.3293C4 24.0341 8.63108 28.6586 14.3441 28.6586C16.6634 28.6621 18.9159 27.884 20.7371 26.4502C18.3314 24.5591 16.786 21.6241 16.786 18.3293Z" fill="#EB001B"/>
<path d="M37.4755 18.3293C37.4755 24.0341 32.8444 28.6586 27.1314 28.6586C24.8119 28.662 22.5591 27.8839 20.7375 26.4502C23.1441 24.5588 24.6892 21.6241 24.6892 18.3293C24.6892 15.0345 23.1441 12.0999 20.7375 10.2085C22.559 8.77479 24.8118 7.99665 27.1312 8.00001C32.8443 8.00001 37.4754 12.6245 37.4754 18.3293" fill="#F79E1B"/>
</g>
<defs>
<clipPath id="clip0_631_277">
<rect width="33.4713" height="26" fill="white" transform="translate(4 8)"/>
</clipPath>
</defs>
</svg>
