<svg width="33" height="26" viewBox="0 0 33 26" fill="none" xmlns="http://www.w3.org/2000/svg">
<g clip-path="url(#clip0_144_285)">
<path d="M32.3497 25.2863V25.3522H32.4113C32.4228 25.3524 32.4342 25.3495 32.4443 25.3438C32.4483 25.341 32.4515 25.3372 32.4537 25.3328C32.4558 25.3284 32.4569 25.3235 32.4567 25.3186C32.4569 25.3138 32.4558 25.309 32.4537 25.3047C32.4515 25.3004 32.4483 25.2968 32.4443 25.2941C32.4343 25.2881 32.4229 25.2852 32.4113 25.2857H32.3497V25.2863ZM32.4119 25.2397C32.4383 25.2381 32.4644 25.2457 32.4859 25.2611C32.4944 25.2681 32.5013 25.2771 32.5058 25.2872C32.5103 25.2973 32.5123 25.3084 32.5118 25.3194C32.5122 25.329 32.5105 25.3385 32.5069 25.3473C32.5033 25.3561 32.4979 25.3641 32.491 25.3707C32.4745 25.385 32.4537 25.3936 32.4319 25.3952L32.5144 25.4891H32.4509L32.375 25.3959H32.3504V25.4891H32.2973V25.2399H32.4128L32.4119 25.2397ZM32.3954 25.5751C32.4233 25.5754 32.4509 25.5698 32.4765 25.5587C32.5011 25.5481 32.5235 25.5329 32.5425 25.514C32.5615 25.4951 32.5767 25.4727 32.5872 25.4481C32.6088 25.3959 32.6088 25.3372 32.5872 25.285C32.5765 25.2605 32.5613 25.2381 32.5425 25.2191C32.5235 25.2002 32.5011 25.1851 32.4765 25.1745C32.4508 25.164 32.4232 25.1587 32.3954 25.159C32.3672 25.1587 32.3392 25.164 32.3129 25.1745C32.2878 25.1849 32.2648 25.2 32.2455 25.2191C32.2163 25.249 32.1965 25.2868 32.1887 25.3278C32.1809 25.3688 32.1853 25.4112 32.2014 25.4498C32.2114 25.4745 32.2264 25.4969 32.2455 25.5157C32.2649 25.5347 32.2878 25.5499 32.3129 25.5603C32.339 25.5714 32.3671 25.577 32.3954 25.5768M32.3954 25.099C32.468 25.0989 32.5376 25.1274 32.5893 25.1781C32.6143 25.2025 32.6341 25.2315 32.6477 25.2636C32.6618 25.2965 32.6691 25.332 32.6691 25.3678C32.6691 25.4036 32.6618 25.4391 32.6477 25.472C32.6338 25.5039 32.614 25.5329 32.5893 25.5575C32.564 25.5817 32.5346 25.6013 32.5024 25.6152C32.4686 25.6295 32.4322 25.6368 32.3954 25.6366C32.3583 25.6368 32.3215 25.6296 32.2872 25.6152C32.2546 25.6016 32.2249 25.582 32.1996 25.5575C32.1749 25.532 32.1554 25.502 32.142 25.4692C32.1279 25.4363 32.1206 25.4008 32.1206 25.365C32.1206 25.3292 32.1279 25.2937 32.142 25.2608C32.1556 25.2287 32.1755 25.1997 32.2004 25.1753C32.2254 25.1503 32.2552 25.1307 32.288 25.1176C32.3223 25.1032 32.3591 25.096 32.3963 25.0962M7.13064 24.1364C7.13064 23.6611 7.44249 23.2707 7.95218 23.2707C8.43926 23.2707 8.76794 23.6443 8.76794 24.1364C8.76794 24.6285 8.43926 25.0022 7.95218 25.0022C7.44249 25.0022 7.13064 24.6117 7.13064 24.1364ZM9.32316 24.1364V22.7839H8.73427V23.1134C8.54749 22.8699 8.26419 22.7172 7.87892 22.7172C7.11992 22.7172 6.52427 23.3116 6.52427 24.1371C6.52427 24.9626 7.11959 25.557 7.87892 25.557C8.26403 25.557 8.54749 25.4041 8.73427 25.1608V25.4891H9.3225V24.1364H9.32316ZM29.2208 24.1364C29.2208 23.6611 29.5327 23.2707 30.0425 23.2707C30.5301 23.2707 30.8583 23.6443 30.8583 24.1364C30.8583 24.6285 30.5301 25.0022 30.0425 25.0022C29.5329 25.0022 29.2208 24.6117 29.2208 24.1364ZM31.414 24.1364V21.6982H30.8246V23.1134C30.6379 22.8699 30.3546 22.7172 29.9693 22.7172C29.2103 22.7172 28.6146 23.3116 28.6146 24.1371C28.6146 24.9626 29.2099 25.557 29.9693 25.557C30.3546 25.557 30.6379 25.4041 30.8246 25.1608V25.4891H31.414V24.1364ZM16.632 23.2429C17.0115 23.2429 17.2552 23.4804 17.3174 23.8987H15.9123C15.9751 23.5083 16.2126 23.2429 16.6322 23.2429M16.6439 22.7157C15.8502 22.7157 15.295 23.2923 15.295 24.1356C15.295 24.9954 15.8725 25.5555 16.6833 25.5555C17.0912 25.5555 17.4648 25.4539 17.7934 25.1766L17.5049 24.7409C17.2778 24.9221 16.9887 25.0237 16.717 25.0237C16.3375 25.0237 15.992 24.8483 15.907 24.3615H17.9178C17.9236 24.2883 17.9296 24.2145 17.9296 24.1354C17.9236 23.2925 17.4016 22.7155 16.6435 22.7155M23.7534 24.1354C23.7534 23.6602 24.0653 23.2697 24.5749 23.2697C25.062 23.2697 25.3907 23.6434 25.3907 24.1354C25.3907 24.6275 25.062 25.0012 24.5749 25.0012C24.0653 25.0012 23.7532 24.6107 23.7532 24.1354M25.9458 24.1354V22.7839H25.3572V23.1134C25.1698 22.8699 24.8871 22.7172 24.5018 22.7172C23.7428 22.7172 23.1472 23.3116 23.1472 24.1371C23.1472 24.9626 23.7425 25.557 24.5018 25.557C24.8871 25.557 25.1698 25.4041 25.3572 25.1608V25.4891H25.9459V24.1364L25.9458 24.1354ZM20.4278 24.1354C20.4278 24.9557 20.9997 25.5554 21.8726 25.5554C22.2804 25.5554 22.5522 25.4648 22.8461 25.233L22.5633 24.7577C22.3422 24.9163 22.11 25.0012 21.8538 25.0012C21.3837 24.9954 21.038 24.656 21.038 24.1354C21.038 23.6149 21.3837 23.2757 21.8538 23.2697C22.1093 23.2697 22.3415 23.3546 22.5633 23.5132L22.8461 23.0379C22.5517 22.8061 22.28 22.7155 21.8726 22.7155C20.9997 22.7155 20.4278 23.315 20.4278 24.1354ZM28.0195 22.7155C27.6797 22.7155 27.4585 22.8742 27.3055 23.1117V22.7839H26.7219V25.4876H27.3115V23.972C27.3115 23.5246 27.504 23.276 27.889 23.276C28.015 23.2742 28.1402 23.2973 28.2572 23.344L28.4387 22.7898C28.3084 22.7386 28.1384 22.716 28.0191 22.716M12.2346 22.9989C11.9513 22.8124 11.5609 22.716 11.1302 22.716C10.4442 22.716 10.0025 23.0444 10.0025 23.5816C10.0025 24.0224 10.3313 24.2944 10.9369 24.3793L11.2151 24.4188C11.538 24.4641 11.6904 24.5489 11.6904 24.7017C11.6904 24.9107 11.4759 25.03 11.0731 25.03C10.6653 25.03 10.3709 24.8998 10.1724 24.7471L9.89571 25.2056C10.2186 25.4432 10.6265 25.5565 11.0682 25.5565C11.8503 25.5565 12.3036 25.1888 12.3036 24.674C12.3036 24.1987 11.9468 23.9501 11.3574 23.8653L11.0799 23.8251C10.825 23.7921 10.6207 23.7409 10.6207 23.5597C10.6207 23.362 10.8133 23.243 11.1363 23.243C11.482 23.243 11.8166 23.3732 11.9806 23.4748L12.2356 22.9995L12.2346 22.9989ZM19.833 22.7165C19.4933 22.7165 19.272 22.8752 19.1197 23.1127V22.7839H18.5361V25.4876H19.125V23.972C19.125 23.5246 19.3175 23.276 19.7025 23.276C19.8285 23.2742 19.9537 23.2973 20.0708 23.344L20.2523 22.7898C20.1219 22.7386 19.952 22.716 19.8327 22.716M14.8078 22.7839H13.8448V21.9636H13.2495V22.7839H12.7002V23.3213H13.2495V24.5547C13.2495 25.1821 13.4934 25.5557 14.19 25.5557C14.4456 25.5557 14.7399 25.4766 14.9267 25.3466L14.7566 24.8432C14.5809 24.9448 14.3883 24.9961 14.2352 24.9961C13.9409 24.9961 13.8448 24.8148 13.8448 24.5435V23.3218H14.8078V22.7839ZM6.00353 25.4883V23.7915C6.00353 23.1524 5.59565 22.7224 4.93812 22.7167C4.59245 22.7109 4.23588 22.8183 3.98624 23.1977C3.79946 22.8979 3.5051 22.7167 3.09128 22.7167C2.80203 22.7167 2.51939 22.8015 2.29812 23.1182V22.7839H1.70874V25.4876H2.30274V23.9885C2.30274 23.5191 2.56344 23.2697 2.96604 23.2697C3.35709 23.2697 3.55493 23.5242 3.55493 23.9826V25.4873H4.15025V23.9882C4.15025 23.5188 4.422 23.2694 4.81289 23.2694C5.21499 23.2694 5.40689 23.5239 5.40689 23.9822V25.487L6.00353 25.4883Z" fill="#231F20"/>
<path d="M32.6855 16.4945V16.0991H32.5824L32.4631 16.3705L32.3445 16.0991H32.241V16.4945H32.3143V16.1966L32.4258 16.4536H32.5017L32.6133 16.196V16.4945H32.6859H32.6855ZM32.0313 16.4945V16.1668H32.1633V16.1001H31.826V16.1668H31.958V16.4945H32.0307H32.0313Z" fill="#F79410"/>
<path d="M20.9644 18.1902H12.0402V2.17725H20.9646L20.9644 18.1902Z" fill="#FF5F00"/>
<path d="M12.606 10.1839C12.606 6.93567 14.1293 4.04213 16.5013 2.17741C14.7058 0.763835 12.485 -0.00336218 10.1985 1.10764e-05C4.56588 1.10764e-05 0 4.55942 0 10.1839C0 15.8084 4.56588 20.3678 10.1985 20.3678C12.4851 20.3712 14.7059 19.604 16.5015 18.1904C14.1296 16.326 12.606 13.4323 12.606 10.1839Z" fill="#EB001B"/>
<path d="M33.0041 10.1839C33.0041 15.8084 28.4383 20.3678 22.8057 20.3678C20.5188 20.3711 18.2977 19.604 16.5018 18.1904C18.8745 16.3257 20.3978 13.4323 20.3978 10.1839C20.3978 6.9355 18.8745 4.04213 16.5018 2.17741C18.2977 0.763877 20.5187 -0.00330305 22.8055 1.06901e-05C28.4381 1.06901e-05 33.004 4.55942 33.004 10.1839" fill="#F79E1B"/>
</g>
<defs>
<clipPath id="clip0_144_285">
<rect width="33" height="25.6339" fill="white"/>
</clipPath>
</defs>
</svg>
