<svg width="42" height="42" viewBox="0 0 42 42" fill="none" xmlns="http://www.w3.org/2000/svg">
<g clip-path="url(#clip0_631_284)">
<path d="M33.2115 35.9756C33.0786 35.6124 32.8376 35.3648 32.6632 35.0429C32.2395 34.4899 31.7411 34.0112 31.2426 33.5325C31.0681 33.4747 30.9934 33.3097 30.8272 33.2436C30.7192 33.1033 30.5448 33.029 30.4036 32.9217C30.1211 32.7071 29.8137 32.5255 29.498 32.344C28.8999 31.9643 28.1605 31.7249 27.4295 31.4773C26.6403 31.2875 25.8095 31.1472 24.9456 31.0316C24.0899 30.9078 23.2342 30.7923 22.5862 30.4539C22.2124 30.3466 21.9383 30.1402 21.6143 29.9751C21.3152 29.7771 20.9912 29.612 20.742 29.3644C20.4346 29.1828 20.2435 28.8774 20.0026 28.6298C19.9195 28.4647 19.7783 28.3657 19.7119 28.1841C19.6288 28.1511 19.6039 28.052 19.554 27.9942C19.4959 27.9282 19.4959 27.7962 19.3962 27.7714C19.3463 28.1098 19.3629 28.5142 19.3962 28.8609C19.4377 29.0095 19.4543 29.191 19.4959 29.3396C19.5208 29.4717 19.6454 29.6863 19.5956 29.7853C17.0036 29.6532 15.1095 28.8361 13.4647 27.7631C12.6505 27.2266 11.9527 26.5746 11.3047 25.873C11.0223 25.4851 10.7149 25.1137 10.4657 24.6845C10.2081 24.2636 9.99214 23.7848 9.75953 23.3391C9.37739 22.3734 9.02017 21.383 8.88725 20.1697C8.71279 19.0389 8.75433 17.5945 9.01186 16.5463C9.10324 15.9685 9.29431 15.4816 9.46046 14.9781C9.56846 14.747 9.68476 14.5159 9.78445 14.2765C9.92568 14.0784 10.0004 13.8061 10.1749 13.6327C10.6484 12.7496 11.3546 12.0893 12.0773 11.4538C12.8582 10.8842 13.7471 10.422 14.8188 10.1414C15.8489 9.9103 17.2529 9.86903 18.3661 10.1084C20.6257 10.5706 22.3287 11.5776 23.7576 12.8651C25.2031 14.128 26.3163 15.7292 27.0806 17.6771C27.8698 19.5259 28.1439 22.4065 27.4378 24.5029C27.147 24.3378 26.8563 24.181 26.5655 24.0242C26.2166 23.9252 25.876 23.8096 25.4689 23.7683C24.9788 23.7601 24.497 23.7683 24.1813 23.9251C24.8209 23.8591 25.336 24.0324 25.7348 24.181C25.9674 24.2718 26.1003 24.3296 26.2831 24.4369C26.6403 24.6432 26.956 24.8331 27.2218 25.1137C27.9778 25.774 28.5178 26.6489 28.7753 27.8044C28.7753 27.8374 28.8168 27.8292 28.8085 27.7714C28.8418 27.7631 28.8584 27.7384 28.875 27.7054C28.9165 27.6558 28.9664 27.6063 29.0079 27.5485C29.091 27.4495 29.174 27.3505 29.2322 27.2266C29.4067 27.0203 29.5479 26.7892 29.6808 26.5498C29.9882 26.1041 30.2208 25.5924 30.4866 25.1054C30.9435 24.0655 31.3174 22.943 31.55 21.6719C32.0152 18.8491 31.4586 16.1749 30.4866 14.2022C29.4897 12.2131 28.0941 10.6201 26.2914 9.42333C24.472 8.23479 22.3453 7.3599 19.4211 7.27736C19.4045 7.21958 19.3796 7.28561 19.3214 7.27736C17.7762 7.22784 16.5301 7.44243 15.2923 7.75607C14.7191 7.94591 14.1209 8.11099 13.6142 8.36685C13.0327 8.55669 12.5675 8.87033 12.0358 9.10143C11.8447 9.28302 11.5539 9.37381 11.3546 9.54714C11.097 9.67094 10.906 9.86903 10.6484 9.99284C10.2331 10.356 9.79276 10.6779 9.3857 11.0493C8.98694 11.4125 8.63803 11.8252 8.25588 12.2048C8.19773 12.3369 8.09804 12.4277 7.99835 12.5267C7.93189 12.6505 7.84882 12.7578 7.74082 12.8486C7.69928 12.9972 7.56636 13.055 7.51652 13.2035C7.40852 13.2861 7.3836 13.4512 7.25899 13.5254C7.15099 13.7896 6.95992 13.9794 6.83531 14.227C6.68577 14.4664 6.56947 14.7305 6.41994 14.9616C6.18733 15.4981 5.9381 16.0181 5.74703 16.5958C5.54765 17.1571 5.3815 17.7514 5.2652 18.3951C5.14059 18.9977 5.02428 19.7818 5.0409 20.4173C4.95782 20.6484 5.02428 21.0776 5.0409 21.35C5.0409 21.3995 5.00767 21.416 5.00767 21.449C5.00767 21.7544 5.09074 22.1258 5.10736 22.3157C5.17382 23.0172 5.29843 23.6693 5.49781 24.2388C5.62242 24.8743 5.88826 25.3696 6.07933 25.9391C6.37009 26.4178 6.56947 26.9873 6.91838 27.4165C7.17591 27.92 7.54144 28.3161 7.89036 28.7288C8.26419 29.125 8.63803 29.5294 9.08663 29.8513C9.90907 30.5612 10.8727 31.1307 11.9278 31.6176C13.8966 32.5668 16.8375 33.1858 19.4793 33.029C20.1522 32.9382 20.8334 32.8557 21.4481 32.7071C22.013 32.5008 22.6693 32.377 23.3505 32.2944C24.904 32.1954 26.2498 32.3357 27.4461 32.6824C28.659 33.0043 29.7057 33.4912 30.6112 34.1268C31.0931 34.4074 31.4918 34.7706 31.8989 35.1172C32.3143 35.4721 32.6466 35.9096 33.0287 36.3058C33.0786 36.4543 33.1782 36.5616 33.253 36.6937C33.3527 36.801 33.3029 37.0486 33.5438 37.0156C33.6933 36.867 33.5188 36.6524 33.5105 36.4708C33.361 36.314 33.3278 36.1077 33.2115 35.9756Z" fill="#FCB316"/>
<path d="M27.1803 27.1935C27.1471 27.1935 27.1388 27.2183 27.1139 27.2265C27.0557 27.3503 27.0806 27.5484 27.1139 27.6722C27.2883 28.0271 27.3465 28.4894 27.7286 28.6379C27.9114 28.5801 27.8948 28.316 27.8865 28.0602C27.8034 27.7465 27.6871 27.4659 27.496 27.2595C27.3631 27.21 27.2717 27.1275 27.1803 27.1935ZM24.9207 28.0932C24.9207 28.0767 24.8958 28.0602 24.8875 28.0932C24.5718 28.0519 24.4638 28.2252 24.3059 28.349C24.0318 29.0671 24.4721 29.7687 25.2447 29.7604C25.5521 29.6861 25.7431 29.4881 25.793 29.1497C25.7514 28.5471 25.4939 28.1592 24.9207 28.0932Z" fill="#FCB316"/>
</g>
<defs>
<clipPath id="clip0_631_284">
<rect width="32.6038" height="32" fill="white" transform="translate(5 5)"/>
</clipPath>
</defs>
</svg>
