<svg width="33" height="33" viewBox="0 0 33 33" fill="none" xmlns="http://www.w3.org/2000/svg">
<g clip-path="url(#clip0_144_282)">
<path d="M28.5543 31.352C28.4198 30.9844 28.1759 30.7338 27.9994 30.408C27.5705 29.8483 27.066 29.3637 26.5615 28.8792C26.3849 28.8207 26.3093 28.6537 26.1411 28.5868C26.0318 28.4448 25.8552 28.3696 25.7123 28.261C25.4264 28.0438 25.1153 27.86 24.7958 27.6762C24.1904 27.2919 23.442 27.0497 22.7021 26.7991C21.9033 26.6069 21.0624 26.4649 20.1879 26.3479C19.3219 26.2226 18.4558 26.1057 17.8 25.7632C17.4216 25.6546 17.1441 25.4457 16.8162 25.2786C16.5135 25.0781 16.1855 24.911 15.9333 24.6604C15.6222 24.4766 15.4288 24.1675 15.1849 23.9169C15.1009 23.7498 14.9579 23.6496 14.8906 23.4658C14.8066 23.4324 14.7813 23.3321 14.7309 23.2736C14.672 23.2068 14.672 23.0732 14.5711 23.0481C14.5207 23.3906 14.5375 23.8 14.5711 24.1508C14.6132 24.3012 14.63 24.485 14.672 24.6354C14.6973 24.769 14.8234 24.9862 14.7729 25.0865C12.1495 24.9528 10.2324 24.1258 8.56752 23.0397C7.7435 22.4967 7.03719 21.8368 6.38134 21.1267C6.09545 20.734 5.78434 20.3581 5.53209 19.9237C5.27143 19.4976 5.05281 19.0131 4.81737 18.562C4.43059 17.5845 4.06902 16.5821 3.93449 15.354C3.75791 14.2095 3.79996 12.7476 4.06062 11.6866C4.15311 11.1018 4.3465 10.6089 4.51467 10.0993C4.62398 9.8654 4.7417 9.63149 4.8426 9.38922C4.98554 9.18873 5.06122 8.91304 5.23779 8.73761C5.71707 7.84373 6.43179 7.1754 7.16332 6.53214C7.95371 5.95571 8.85341 5.48788 9.9381 5.20385C10.9807 4.96993 12.4018 4.92816 13.5285 5.17043C15.8156 5.63826 17.5393 6.65745 18.9855 7.96068C20.4486 9.23885 21.5753 10.8595 22.3489 12.8311C23.1477 14.7024 23.4252 17.618 22.7105 19.7399C22.4162 19.5728 22.1219 19.4141 21.8276 19.2554C21.4744 19.1551 21.1297 19.0381 20.7177 18.9964C20.2216 18.988 19.7339 18.9964 19.4144 19.1551C20.0618 19.0883 20.5831 19.2637 20.9867 19.4141C21.2222 19.506 21.3567 19.5645 21.5417 19.6731C21.9033 19.8819 22.2228 20.074 22.4919 20.3581C23.257 21.0264 23.8036 21.9119 24.0642 23.0815C24.0642 23.1149 24.1063 23.1066 24.0979 23.0481C24.1315 23.0397 24.1483 23.0147 24.1651 22.9813C24.2072 22.9311 24.2576 22.881 24.2997 22.8225C24.3837 22.7223 24.4678 22.622 24.5267 22.4967C24.7033 22.2879 24.8462 22.054 24.9807 21.8117C25.2919 21.3606 25.5273 20.8426 25.7964 20.3497C26.2588 19.2971 26.6372 18.161 26.8726 16.8744C27.3435 14.0174 26.7801 11.3107 25.7964 9.31404C24.7873 7.30071 23.3747 5.68838 21.5501 4.47704C19.7087 3.27406 17.5561 2.38853 14.5964 2.30499C14.5795 2.24651 14.5543 2.31335 14.4955 2.30499C12.9315 2.25487 11.6702 2.47207 10.4174 2.78953C9.83719 2.98167 9.23179 3.14875 8.71888 3.40773C8.13029 3.59987 7.65942 3.91732 7.12128 4.15124C6.92788 4.33503 6.63359 4.42692 6.43179 4.60236C6.17113 4.72767 5.97773 4.92816 5.71707 5.05347C5.29665 5.42105 4.85101 5.74686 4.43899 6.12279C4.03539 6.49037 3.68224 6.90807 3.29545 7.29236C3.23659 7.42602 3.13569 7.51792 3.03479 7.61817C2.96752 7.74348 2.88344 7.85208 2.77413 7.94397C2.73209 8.09435 2.59755 8.15282 2.5471 8.3032C2.43779 8.38674 2.41257 8.55382 2.28644 8.62901C2.17713 8.89634 1.98374 9.08848 1.85761 9.3391C1.70626 9.58137 1.58854 9.8487 1.43719 10.0826C1.20176 10.6256 0.949504 11.1519 0.756111 11.7367C0.554309 12.3048 0.386141 12.9063 0.268423 13.5579C0.142297 14.1677 0.0245792 14.9614 0.041396 15.6046C-0.0426881 15.8385 0.0245792 16.273 0.041396 16.5486C0.041396 16.5988 0.00776239 16.6155 0.00776239 16.6489C0.00776239 16.958 0.0918465 17.3339 0.108663 17.5261C0.175931 18.2362 0.302057 18.8961 0.503859 19.4726C0.629985 20.1158 0.899054 20.6171 1.09245 21.1935C1.38674 21.678 1.58854 22.2545 1.9417 22.6889C2.20236 23.1985 2.57233 23.5995 2.92548 24.0172C3.30386 24.4182 3.68224 24.8275 4.13629 25.1533C4.96872 25.8718 5.9441 26.4482 7.01197 26.9411C9.00476 27.9018 11.9813 28.5283 14.6552 28.3696C15.3363 28.2777 16.0258 28.1942 16.648 28.0438C17.2198 27.835 17.884 27.7096 18.5735 27.6261C20.1459 27.5259 21.5081 27.6679 22.7189 28.0187C23.9465 28.3446 25.006 28.8374 25.9225 29.4807C26.4102 29.7647 26.8138 30.1323 27.2258 30.4832C27.6462 30.8424 27.9825 31.2852 28.3693 31.6862C28.4198 31.8365 28.5207 31.9452 28.5964 32.0788C28.6973 32.1874 28.6468 32.438 28.8907 32.4046C29.042 32.2542 28.8654 32.037 28.857 31.8533C28.7057 31.6945 28.672 31.4857 28.5543 31.352Z" fill="#FCB316"/>
<path d="M22.4498 22.4633C22.4161 22.4633 22.4077 22.4884 22.3825 22.4968C22.3236 22.6221 22.3489 22.8226 22.3825 22.9479C22.5591 23.3071 22.6179 23.7749 23.0047 23.9253C23.1897 23.8668 23.1729 23.5995 23.1645 23.3405C23.0804 23.0231 22.9627 22.739 22.7693 22.5302C22.6348 22.4801 22.5423 22.3965 22.4498 22.4633ZM20.1627 23.3739C20.1627 23.3572 20.1375 23.3405 20.1291 23.3739C19.8095 23.3322 19.7002 23.5076 19.5405 23.6329C19.263 24.3597 19.7086 25.0698 20.4906 25.0615C20.8017 24.9863 20.9951 24.7858 21.0456 24.4433C21.0035 23.8334 20.7429 23.4408 20.1627 23.3739Z" fill="#FCB316"/>
</g>
<defs>
<clipPath id="clip0_144_282">
<rect width="33" height="32.3889" fill="white"/>
</clipPath>
</defs>
</svg>
