<svg width="43" height="14" viewBox="0 0 43 14" fill="none" xmlns="http://www.w3.org/2000/svg">
<path d="M18.2418 13.4239H14.8082L16.9542 0.235656H20.3881L18.2418 13.4239ZM11.9197 0.235656L8.64625 9.30665L8.2589 7.35331L8.25925 7.35402L7.1039 1.42311C7.1039 1.42311 6.9642 0.235656 5.47512 0.235656H0.0635002L0 0.458964C0 0.458964 1.65488 0.803276 3.59164 1.96639L6.57473 13.4243H10.1523L15.615 0.235656H11.9197ZM38.9266 13.4239H42.0794L39.3306 0.235303H36.5704C35.2958 0.235303 34.9854 1.21814 34.9854 1.21814L29.8645 13.4239H33.4437L34.1595 11.4649H38.5245L38.9266 13.4239ZM35.1484 8.75878L36.9525 3.82341L37.9674 8.75878H35.1484ZM30.1329 3.40713L30.6229 0.575028C30.6229 0.575028 29.1109 0 27.5347 0C25.8308 0 21.7844 0.744715 21.7844 4.36599C21.7844 7.77312 26.5335 7.81546 26.5335 9.6051C26.5335 11.3947 22.2737 11.0741 20.8679 9.94553L20.3574 12.9068C20.3574 12.9068 21.8906 13.6515 24.2331 13.6515C26.5762 13.6515 30.1111 12.4383 30.1111 9.13626C30.1111 5.70725 25.3193 5.38799 25.3193 3.89714C25.3196 2.40595 28.6636 2.59751 30.1329 3.40713Z" fill="#2566AF"/>
</svg>
