<svg width="42" height="42" viewBox="0 0 42 42" fill="none" xmlns="http://www.w3.org/2000/svg">
<path d="M18.2074 27.7666H14.7803L16.9222 14.2417H20.3496L18.2074 27.7666ZM11.8972 14.2417L8.62993 23.5443L8.24331 21.541L8.24366 21.5418L7.09049 15.4594C7.09049 15.4594 6.95106 14.2417 5.46479 14.2417H0.0633804L0 14.4707C0 14.4707 1.65176 14.8238 3.58486 16.0166L6.56232 27.767H10.1331L15.5856 14.2417H11.8972ZM38.8532 27.7666H42L39.2563 14.2413H36.5014C35.2292 14.2413 34.9194 15.2492 34.9194 15.2492L29.8081 27.7666H33.3806L34.0951 25.7577H38.4518L38.8532 27.7666ZM35.082 22.9824L36.8827 17.921L37.8958 22.9824H35.082ZM30.0761 17.4941L30.5651 14.5897C30.5651 14.5897 29.056 14 27.4827 14C25.782 14 21.7433 14.7637 21.7433 18.4775C21.7433 21.9716 26.4835 22.015 26.4835 23.8503C26.4835 25.6857 22.2317 25.3568 20.8285 24.1994L20.319 27.2363C20.319 27.2363 21.8493 28 24.1873 28C26.5261 28 30.0542 26.7558 30.0542 23.3695C30.0542 19.853 25.2715 19.5255 25.2715 17.9966C25.2718 16.4674 28.6095 16.6638 30.0761 17.4941Z" fill="#2566AF"/>
</svg>
